<svg width="112" height="23" viewBox="0 0 112 23" fill="none" xmlns="http://www.w3.org/2000/svg">
<path d="M36.2792 15.2608C33.7732 15.2608 31.7424 13.3047 31.7424 10.8929C31.7424 8.50617 33.7316 6.56673 36.2012 6.52834C36.2272 6.52667 36.2532 6.52668 36.2792 6.52668C36.3051 6.52668 36.3312 6.52667 36.3573 6.52834C38.8269 6.56673 40.8161 8.50617 40.8161 10.8929C40.8161 13.3047 38.7853 15.2608 36.2792 15.2608ZM40.8161 4.30394V5.96421C39.609 4.9344 38.0203 4.3085 36.2792 4.3085C32.5002 4.3085 29.4375 7.25772 29.4375 10.8929C29.4375 14.5298 32.5002 17.479 36.2792 17.479C38.0203 17.479 39.609 16.8531 40.8161 15.8233V17.4731H43.1296V4.30394H40.8161Z" fill="#222222"/>
<path d="M36.3572 6.52841C36.3312 6.52674 36.3051 6.52674 36.2792 6.52674C36.2532 6.52674 36.2272 6.52674 36.2012 6.52841C36.2272 6.52996 36.2532 6.53174 36.2792 6.53174C36.3051 6.53174 36.3312 6.52996 36.3572 6.52841Z" fill="#222222"/>
<path d="M55.6915 10.8582L62.5402 4.26723H59.2676L53.5566 9.76342H52.3877V0.00124168H50.0742V17.4741H52.3877V11.9899H53.5324L54.0232 12.4638L59.1896 17.436H62.4622L55.6603 10.89L55.6915 10.8582Z" fill="#222222"/>
<path d="M98.3509 10.8954V17.4731H96.0373V9.81385C96.0373 7.99959 94.5094 6.52749 92.6225 6.52749C90.7374 6.52749 89.2077 7.99959 89.2077 9.81385V10.8954V17.4731H86.8942V10.8954L86.9012 9.89397C86.9029 9.86727 86.9029 9.84056 86.9029 9.81385C86.9029 9.78715 86.9029 9.76044 86.9012 9.73374C86.9012 9.687 86.8994 9.64194 86.8942 9.59688C86.7797 7.88443 85.2969 6.52749 83.4881 6.52749C81.6029 6.52749 80.0733 7.99959 80.0733 9.81385V17.4731H77.7598V4.30431H80.0733V5.38919C81.0254 4.70655 82.2065 4.30431 83.4846 4.30431H83.4898C84.7662 4.30598 85.9421 4.70822 86.8942 5.38753C87.333 5.70131 87.7232 6.0735 88.0544 6.49411C88.3822 6.07517 88.7724 5.70464 89.2077 5.39253C90.1616 4.70822 91.3426 4.30431 92.6225 4.30431C93.9024 4.30431 95.0835 4.70822 96.0373 5.39253C97.4386 6.39563 98.3474 8.00293 98.3474 9.81385L98.3509 10.8954Z" fill="#222222"/>
<path d="M47.7608 0.000154495H45.4473V17.4731H47.7608V0.000154495Z" fill="#222222"/>
<path d="M64.2016 9.76993C64.7098 7.92741 66.4406 6.56368 68.5078 6.53041C68.5338 6.52874 68.5598 6.52874 68.5859 6.52874C68.6119 6.52874 68.6379 6.52874 68.6639 6.53041C70.7313 6.56368 72.4637 7.92741 72.9719 9.76993H64.2016ZM75.3322 11.9966C75.3946 11.6377 75.4276 11.2705 75.4276 10.895C75.4276 10.5111 75.3929 10.1356 75.3271 9.76993C74.7738 6.6705 71.966 4.31046 68.5859 4.31046C64.8086 4.31046 61.7441 7.25978 61.7441 10.895C61.7441 14.5318 64.8086 17.481 68.5859 17.481C71.104 17.481 73.3031 16.1724 74.4911 14.223H71.522C70.7313 14.8723 69.7045 15.2629 68.5859 15.2629C67.4655 15.2629 66.4406 14.8723 65.6497 14.223C64.9491 13.6523 64.4323 12.8778 64.1947 11.9966H75.3322Z" fill="#222222"/>
<path d="M100.787 22.9524V22.9541H100.723C100.743 22.9541 100.766 22.9541 100.787 22.9524Z" fill="#222222"/>
<path d="M109.445 4.30437L106.766 9.78053L105.674 12.007L105.42 12.5294L105.163 12.007L104.074 9.78053L101.395 4.30437H98.8365L101.516 9.78053L102.605 12.007L103.434 13.6995L103.696 14.2336L104.14 15.1432L103 17.4732L102.326 18.8518C102.319 18.8718 102.309 18.8919 102.298 18.9119C101.747 19.9918 100.593 20.7345 99.2596 20.7345H98.3516V22.8921C98.6427 22.9359 98.9402 22.9609 99.244 22.9609C99.629 22.9609 100.005 22.9243 100.368 22.8542C101.197 22.6957 101.963 22.3635 102.621 21.9012C102.659 21.876 102.695 21.8495 102.732 21.8211C103.151 21.509 103.526 21.1435 103.842 20.7345C104.022 20.5009 104.183 20.2522 104.325 19.9918L104.511 19.6113C104.515 19.6063 104.516 19.6012 104.518 19.5962L105.418 17.7553L105.556 17.4732L106.697 15.1415L107.141 14.2336L108.231 12.007L109.322 9.78053L112.001 4.30437H109.445Z" fill="#222222"/>
<path d="M0 17.4741L8.54988 0.00123978H11.1825L12.4381 2.56657L13.7163 5.17864L19.7324 17.4741H17.1747L12.4381 7.79238L11.16 5.18031L9.8662 2.53653L2.55783 17.4741H0Z" fill="#58C1F5"/>
<path d="M5.13086 17.474L13.6806 0.00112152H16.3133L17.5689 2.56645L18.847 5.17852L24.8616 17.4709L22.308 17.479L17.5689 7.79226L16.2907 5.18019L14.9969 2.53641L7.68857 17.474H5.13086Z" fill="#58C1F5"/>
</svg>
